<?xml version="1.0" encoding="utf-8"?>
<!-- Generator: Adobe Illustrator 21.0.0, SVG Export Plug-In . SVG Version: 6.00 Build 0)  -->
<svg version="1.1" id="Layer_1" xmlns="http://www.w3.org/2000/svg" xmlns:xlink="http://www.w3.org/1999/xlink" x="0px" y="0px"
	 viewBox="0 0 511 511" style="enable-background:new 0 0 511 511;" xml:space="preserve">
<style type="text/css">
	.st0{fill:#07485E;}
	.st1{fill:#03232E;}
	.st2{fill:#FF8859;}
	.st3{fill:#FF3939;}
	.st4{fill:#FFF5F5;}
	.st5{fill:#EFE2DD;}
</style>
<path class="st0" d="M165.7,496l0-421.2c0-8.4,6.6-15,15-15l119.8,0c8.4,0,15,6.6,15,15L495,496c0,8.4-6.6,15-15,15l-299.4,0
	C172.3,511,165.7,504.4,165.7,496z"/>
<path class="st1" d="M165.7,496l0-421.2c0-8.4,6.6-15,15-15l119.8,0c8.4,0,15,6.6,15,15l44.9,104.8l0,331.4l-179.6,0
	C172.3,511,165.7,504.4,165.7,496z"/>
<path class="st2" d="M293.8,419.7l179.6,89.8c4.5,2.1,10.2,2.1,14.4-0.6c4.5-3,7.2-7.8,7.2-12.9l0-421.2c0-6.6-4.2-12.3-10.2-14.1
	L360.3,19.2L305.2,0.9c-4.4-1.8-10.1-0.8-13.5,1.8c-3.9,3-6.3,7.5-6.3,12.3l0,391.2C285.4,411.9,288.7,417,293.8,419.7z"/>
<path class="st3" d="M285.4,406.2l0-391.2c0-4.8,2.4-9.3,6.3-12.3c3.4-2.5,9-3.6,13.5-1.8l55.1,18.3l0,433.8l-66.5-33.2
	C288.7,417,285.4,411.9,285.4,406.2z"/>
<path class="st3" d="M127.8,181.4c4.9,2.6,7.9,7.7,7.9,13.2l0,15l104.8,0c8.3,0,15,6.7,15,15l0,59.9c0,8.3-6.7,15-15,15l-104.8,0
	l0,15c0,5.5-3,10.6-7.9,13.2c-4.9,2.6-10.8,2.3-15.4-0.7L22.6,267c-4.2-2.8-6.7-7.5-6.7-12.5c0-5,2.5-9.7,6.7-12.5l89.8-59.9
	C117.1,179.1,123,178.8,127.8,181.4z"/>
<path class="st4" d="M345.3,284.4l0-59.9c0-8.4,6.6-15,15-15c8.4,0,15,6.6,15,15l0,59.9c0,8.4-6.6,15-15,15
	C351.9,299.4,345.3,292.8,345.3,284.4z"/>
<path class="st5" d="M345.3,284.4l0-59.9c0-8.4,6.6-15,15-15l0,89.8C351.9,299.4,345.3,292.8,345.3,284.4z"/>
</svg>
