<?xml version="1.0" encoding="UTF-8" ?>
<!DOCTYPE svg PUBLIC "-//W3C//DTD SVG 1.1//EN" "http://www.w3.org/Graphics/SVG/1.1/DTD/svg11.dtd">
<svg width="240pt" height="200pt" viewBox="0 0 240 200" version="1.1" xmlns="http://www.w3.org/2000/svg">
<g id="#ffffffff">
<path fill="#ffffff" opacity="1.00" d=" M 0.00 0.00 L 240.00 0.00 L 240.00 200.00 L 0.00 200.00 L 0.00 0.00 M 186.25 27.41 C 186.37 30.44 188.26 32.89 189.41 35.57 C 193.63 45.52 198.68 55.08 202.91 65.01 C 203.88 67.61 205.31 69.99 206.86 72.28 C 212.59 70.87 217.52 67.42 222.98 65.26 C 226.60 63.87 230.06 62.09 233.45 60.21 C 232.78 57.59 231.98 54.99 230.68 52.61 C 224.27 40.30 219.54 27.13 212.65 15.07 C 203.69 18.81 194.75 22.70 186.25 27.41 M 123.10 31.08 C 107.56 40.31 91.89 49.35 76.29 58.48 C 72.75 60.45 69.38 63.68 65.05 63.32 C 48.90 63.29 32.75 63.30 16.60 63.32 C 16.61 90.07 16.59 116.82 16.61 143.58 C 20.70 143.59 24.79 143.68 28.88 143.60 C 29.97 151.04 32.03 158.33 32.90 165.80 C 37.30 165.99 41.53 164.63 45.89 164.36 C 48.69 171.82 51.62 179.24 54.60 186.64 C 95.97 170.41 137.48 154.54 178.82 138.22 C 177.88 132.58 175.02 127.55 173.19 122.20 C 169.00 111.50 165.14 100.66 160.51 90.14 C 155.47 90.19 150.52 91.00 145.56 91.77 C 145.31 92.07 144.81 92.68 144.57 92.99 C 144.45 103.02 144.74 113.06 144.40 123.09 C 136.63 123.58 131.42 130.71 129.32 137.60 C 98.78 137.56 68.25 137.55 37.71 137.60 C 36.06 134.25 34.81 130.53 32.11 127.84 C 29.58 124.94 25.91 123.71 22.36 122.61 C 22.36 109.68 22.18 96.74 22.45 83.81 C 26.51 82.62 30.68 80.79 33.36 77.38 C 35.15 74.62 36.51 71.60 37.80 68.58 C 67.87 68.72 97.94 68.57 128.01 68.65 C 132.38 68.92 136.34 66.76 140.20 65.06 C 139.68 64.69 138.63 63.95 138.10 63.58 C 128.41 62.83 118.64 63.70 108.93 63.15 C 112.48 60.76 116.93 60.75 120.90 59.49 C 123.57 58.93 126.10 57.55 128.85 57.51 C 131.91 58.62 134.94 59.84 137.98 61.00 C 140.66 61.83 142.21 64.51 142.63 67.14 C 131.55 70.55 120.48 74.03 109.53 77.83 C 106.41 78.92 104.18 81.66 102.63 84.46 C 101.77 88.58 101.71 94.42 106.95 95.40 C 112.88 94.54 118.84 93.87 124.77 92.99 C 139.27 90.11 154.13 89.17 168.53 85.80 C 179.69 80.89 190.92 76.14 202.12 71.33 C 201.84 68.90 200.91 66.64 199.69 64.54 C 194.77 54.11 189.95 43.63 185.19 33.12 C 181.32 34.79 177.69 36.97 173.74 38.45 C 167.32 40.03 161.38 36.52 155.18 35.58 C 149.11 34.61 143.40 32.20 137.32 31.28 C 132.63 30.58 127.52 28.11 123.10 31.08 M 77.90 77.17 C 69.92 79.39 64.00 86.49 61.96 94.35 C 59.75 100.17 59.82 106.74 62.10 112.54 C 64.10 120.36 70.30 127.11 78.11 129.32 C 84.40 130.47 91.45 129.79 96.43 125.42 C 104.36 119.10 107.36 108.35 106.35 98.54 C 104.42 96.84 102.13 95.38 100.90 93.05 C 99.71 90.20 99.98 87.04 99.44 84.07 C 94.41 77.70 85.68 75.00 77.90 77.17 Z" />
<path fill="#ffffff" opacity="1.00" d=" M 199.03 31.05 C 199.52 27.69 202.88 25.21 206.12 26.91 C 209.22 29.52 206.82 34.64 203.01 34.70 C 201.50 33.70 200.31 32.31 199.03 31.05 Z" />
<path fill="#ffffff" opacity="1.00" d=" M 72.54 96.09 C 73.22 90.42 78.83 87.48 83.04 84.56 C 86.29 85.63 88.84 88.35 91.64 90.30 C 93.83 91.70 93.54 94.35 93.58 96.61 C 89.94 97.25 88.24 93.91 85.75 92.03 C 85.56 95.07 85.58 98.13 85.70 101.18 C 88.60 102.58 92.09 103.81 93.40 107.05 C 94.04 110.45 94.15 114.77 90.93 116.95 C 88.34 118.75 85.94 120.83 83.22 122.43 C 78.98 119.03 73.67 116.25 72.19 110.56 C 75.44 109.79 78.25 111.09 80.58 113.31 C 80.56 110.56 81.04 107.73 80.36 105.03 C 76.92 103.07 72.76 100.47 72.54 96.09 M 77.13 96.01 C 78.28 97.49 79.64 98.81 81.20 99.86 C 81.27 97.27 81.26 94.69 81.16 92.10 C 79.61 93.18 78.31 94.55 77.13 96.01 M 85.62 107.43 C 85.63 109.56 85.61 111.69 85.61 113.82 C 89.18 113.90 88.81 110.21 88.43 107.66 C 87.49 107.57 86.55 107.49 85.62 107.43 Z" />
<path fill="#ffffff" opacity="1.00" d=" M 150.77 98.65 C 153.01 106.43 153.26 114.63 155.72 122.36 C 154.05 123.35 152.32 124.26 150.53 125.01 C 150.49 116.23 150.12 107.42 150.77 98.65 Z" />
<path fill="#ffffff" opacity="1.00" d=" M 158.17 102.83 L 159.41 101.89 C 160.85 107.86 164.09 113.19 165.64 119.09 C 166.56 121.87 163.44 123.15 161.64 124.44 C 160.37 117.26 158.74 110.10 158.17 102.83 Z" />
<path fill="#ffffff" opacity="1.00" d=" M 33.89 143.92 C 35.57 143.72 37.26 143.59 38.95 143.59 C 62.30 143.64 85.65 143.61 108.99 143.62 C 113.72 143.65 118.47 143.37 123.17 144.01 C 113.99 145.43 104.98 147.67 95.79 149.02 C 86.57 150.35 77.54 152.75 68.30 153.98 C 62.94 154.68 57.80 156.67 52.37 156.75 C 50.79 153.25 48.69 149.82 45.23 147.91 C 41.97 145.27 37.59 145.55 33.89 143.92 Z" />
<path fill="#ffffff" opacity="1.00" d=" M 113.79 151.49 C 122.51 149.43 131.48 148.77 140.22 146.84 C 122.27 154.59 103.74 160.92 85.70 168.47 C 81.39 170.35 76.64 171.16 72.64 173.75 C 70.07 171.17 67.40 168.65 64.32 166.70 C 60.47 164.71 55.96 165.35 51.78 165.25 C 51.67 164.43 51.57 163.61 51.48 162.78 C 57.19 161.79 62.99 161.22 68.59 159.69 C 76.37 158.01 84.34 157.41 92.08 155.55 C 99.25 153.86 106.62 153.18 113.79 151.49 Z" />
</g>
<g id="#000000ff">
<path fill="#000000" opacity="1.00" d=" M 186.25 27.41 C 194.75 22.70 203.69 18.81 212.65 15.07 C 219.54 27.13 224.27 40.30 230.68 52.61 C 231.98 54.99 232.78 57.59 233.45 60.21 C 230.06 62.09 226.60 63.87 222.98 65.26 C 217.52 67.42 212.59 70.87 206.86 72.28 C 205.31 69.99 203.88 67.61 202.91 65.01 C 198.68 55.08 193.63 45.52 189.41 35.57 C 188.26 32.89 186.37 30.44 186.25 27.41 M 199.03 31.05 C 200.31 32.31 201.50 33.70 203.01 34.70 C 206.82 34.64 209.22 29.52 206.12 26.91 C 202.88 25.21 199.52 27.69 199.03 31.05 Z" />
<path fill="#000000" opacity="1.00" d=" M 123.10 31.08 C 127.52 28.11 132.63 30.58 137.32 31.28 C 143.40 32.20 149.11 34.61 155.18 35.58 C 161.38 36.52 167.32 40.03 173.74 38.45 C 177.69 36.97 181.32 34.79 185.19 33.12 C 189.95 43.63 194.77 54.11 199.69 64.54 C 200.91 66.64 201.84 68.90 202.12 71.33 C 190.92 76.14 179.69 80.89 168.53 85.80 C 154.13 89.17 139.27 90.11 124.77 92.99 C 118.84 93.87 112.88 94.54 106.95 95.40 C 101.71 94.42 101.77 88.58 102.63 84.46 C 104.18 81.66 106.41 78.92 109.53 77.83 C 120.48 74.03 131.55 70.55 142.63 67.14 C 142.21 64.51 140.66 61.83 137.98 61.00 C 134.94 59.84 131.91 58.62 128.85 57.51 C 126.10 57.55 123.57 58.93 120.90 59.49 C 116.93 60.75 112.48 60.76 108.93 63.15 C 118.64 63.70 128.41 62.83 138.10 63.58 C 138.63 63.95 139.68 64.69 140.20 65.06 C 136.34 66.76 132.38 68.92 128.01 68.65 C 97.94 68.57 67.87 68.72 37.80 68.58 C 36.51 71.60 35.15 74.62 33.36 77.38 C 30.68 80.79 26.51 82.62 22.45 83.81 C 22.18 96.74 22.36 109.68 22.36 122.61 C 25.91 123.71 29.58 124.94 32.11 127.84 C 34.81 130.53 36.06 134.25 37.71 137.60 C 68.25 137.55 98.78 137.56 129.32 137.60 C 131.42 130.71 136.63 123.58 144.40 123.09 C 144.74 113.06 144.45 103.02 144.57 92.99 C 144.81 92.68 145.31 92.07 145.56 91.77 C 150.52 91.00 155.47 90.19 160.51 90.14 C 165.14 100.66 169.00 111.50 173.19 122.20 C 175.02 127.55 177.88 132.58 178.82 138.22 C 137.48 154.54 95.97 170.41 54.60 186.64 C 51.62 179.24 48.69 171.82 45.89 164.36 C 41.53 164.63 37.30 165.99 32.90 165.80 C 32.03 158.33 29.97 151.04 28.88 143.60 C 24.79 143.68 20.70 143.59 16.61 143.58 C 16.59 116.82 16.61 90.07 16.60 63.32 C 32.75 63.30 48.90 63.29 65.05 63.32 C 69.38 63.68 72.75 60.45 76.29 58.48 C 91.89 49.35 107.56 40.31 123.10 31.08 M 150.77 98.65 C 150.12 107.42 150.49 116.23 150.53 125.01 C 152.32 124.26 154.05 123.35 155.72 122.36 C 153.26 114.63 153.01 106.43 150.77 98.65 M 158.17 102.83 C 158.74 110.10 160.37 117.26 161.64 124.44 C 163.44 123.15 166.56 121.87 165.64 119.09 C 164.09 113.19 160.85 107.86 159.41 101.89 L 158.17 102.83 M 33.89 143.92 C 37.59 145.55 41.97 145.27 45.23 147.91 C 48.69 149.82 50.79 153.25 52.37 156.75 C 57.80 156.67 62.94 154.68 68.30 153.98 C 77.54 152.75 86.57 150.35 95.79 149.02 C 104.98 147.67 113.99 145.43 123.17 144.01 C 118.47 143.37 113.72 143.65 108.99 143.62 C 85.65 143.61 62.30 143.64 38.95 143.59 C 37.26 143.59 35.57 143.72 33.89 143.92 M 113.79 151.49 C 106.62 153.18 99.25 153.86 92.08 155.55 C 84.34 157.41 76.37 158.01 68.59 159.69 C 62.99 161.22 57.19 161.79 51.48 162.78 C 51.57 163.61 51.67 164.43 51.78 165.25 C 55.96 165.35 60.47 164.71 64.32 166.70 C 67.40 168.65 70.07 171.17 72.64 173.75 C 76.64 171.16 81.39 170.35 85.70 168.47 C 103.74 160.92 122.27 154.59 140.22 146.84 C 131.48 148.77 122.51 149.43 113.79 151.49 Z" />
<path fill="#000000" opacity="1.00" d=" M 77.90 77.17 C 85.68 75.00 94.41 77.70 99.44 84.07 C 99.98 87.04 99.71 90.20 100.90 93.05 C 102.13 95.38 104.42 96.84 106.35 98.54 C 107.36 108.35 104.36 119.10 96.43 125.42 C 91.45 129.79 84.40 130.47 78.11 129.32 C 70.30 127.11 64.10 120.36 62.10 112.54 C 59.82 106.74 59.75 100.17 61.96 94.35 C 64.00 86.49 69.92 79.39 77.90 77.17 M 72.54 96.09 C 72.76 100.47 76.92 103.07 80.36 105.03 C 81.04 107.73 80.56 110.56 80.58 113.31 C 78.25 111.09 75.44 109.79 72.19 110.56 C 73.67 116.25 78.98 119.03 83.22 122.43 C 85.94 120.83 88.34 118.75 90.93 116.95 C 94.15 114.77 94.04 110.45 93.40 107.05 C 92.09 103.81 88.60 102.58 85.70 101.18 C 85.58 98.13 85.56 95.07 85.75 92.03 C 88.24 93.91 89.94 97.25 93.58 96.61 C 93.54 94.35 93.83 91.70 91.64 90.30 C 88.84 88.35 86.29 85.63 83.04 84.56 C 78.83 87.48 73.22 90.42 72.54 96.09 Z" />
<path fill="#000000" opacity="1.00" d=" M 77.13 96.01 C 78.31 94.55 79.61 93.18 81.16 92.10 C 81.26 94.69 81.27 97.27 81.20 99.86 C 79.64 98.81 78.28 97.49 77.13 96.01 Z" />
<path fill="#000000" opacity="1.00" d=" M 85.62 107.43 C 86.55 107.49 87.49 107.57 88.43 107.66 C 88.81 110.21 89.18 113.90 85.61 113.82 C 85.61 111.69 85.63 109.56 85.62 107.43 Z" />
</g>
</svg>
