<?xml version="1.0" encoding="UTF-8" ?>
<!DOCTYPE svg PUBLIC "-//W3C//DTD SVG 1.1//EN" "http://www.w3.org/Graphics/SVG/1.1/DTD/svg11.dtd">
<svg width="240pt" height="200pt" viewBox="0 0 240 200" version="1.1" xmlns="http://www.w3.org/2000/svg">
<g id="#ffffffff">
<path fill="#ffffff" opacity="1.00" d=" M 0.00 0.00 L 240.00 0.00 L 240.00 200.00 L 0.00 200.00 L 0.00 0.00 M 146.71 28.51 C 133.85 32.83 121.58 38.71 108.72 43.03 C 92.95 49.52 76.90 55.26 61.15 61.80 C 62.19 67.44 65.04 72.48 66.88 77.86 C 70.96 88.58 74.87 99.37 79.50 109.87 C 83.04 109.66 86.60 109.56 90.07 108.79 C 91.83 108.27 94.35 108.99 95.42 107.10 C 95.56 97.01 95.29 86.91 95.56 76.83 C 102.81 76.30 109.22 69.77 109.88 62.57 C 140.77 62.20 171.67 62.53 202.57 62.41 C 204.62 69.30 209.72 76.50 217.56 76.80 C 217.82 89.81 217.63 102.84 217.66 115.86 C 213.87 117.37 209.74 118.73 207.08 122.03 C 204.96 124.82 203.56 128.09 202.37 131.37 C 171.89 131.36 141.42 131.38 110.95 131.35 C 106.94 131.35 103.32 133.37 99.78 134.99 C 100.44 135.38 101.78 136.16 102.44 136.55 C 111.42 137.39 120.67 135.42 129.46 137.80 C 123.04 139.32 116.65 142.01 109.97 141.68 C 105.08 140.12 98.13 139.06 97.28 132.86 C 108.17 129.45 119.05 126.05 129.82 122.32 C 134.71 120.50 138.80 115.43 137.67 110.00 C 137.81 107.88 136.41 105.25 134.04 105.29 C 121.88 104.87 110.12 108.60 98.09 109.66 C 86.84 111.87 74.76 111.63 64.47 117.25 C 55.53 121.10 46.61 124.98 37.60 128.63 C 37.83 129.42 38.31 131.00 38.55 131.80 C 44.15 143.43 49.61 155.15 54.86 166.94 C 58.65 165.05 62.40 163.03 66.35 161.50 C 72.07 160.10 77.48 162.84 82.94 164.00 C 92.72 165.79 102.15 169.28 112.05 170.41 C 115.39 170.07 118.30 168.09 121.10 166.38 C 137.26 156.80 153.60 147.53 169.69 137.83 C 170.97 137.07 172.40 136.51 173.92 136.66 C 190.42 136.67 206.92 136.68 223.41 136.68 C 223.40 109.92 223.37 83.17 223.42 56.42 C 219.36 56.37 215.30 56.30 211.24 56.46 C 209.89 49.00 208.01 41.62 207.04 34.11 C 202.65 34.05 198.41 35.29 194.06 35.61 C 191.50 28.03 188.14 20.75 185.34 13.25 C 172.51 18.45 159.53 23.26 146.71 28.51 M 135.66 85.37 C 133.89 90.69 132.67 96.59 134.32 102.10 C 136.39 103.67 138.88 105.22 139.52 107.94 C 140.34 110.23 140.17 112.67 140.31 115.05 C 145.65 123.73 158.36 125.92 166.90 120.76 C 172.39 117.16 176.66 111.64 178.21 105.20 C 181.30 97.21 179.19 88.30 175.19 81.04 C 171.21 74.46 163.92 69.41 155.96 70.22 C 146.66 69.82 138.91 77.17 135.66 85.37 M 14.06 135.92 C 11.60 137.20 8.71 138.05 6.82 140.15 C 7.00 143.79 9.33 147.02 10.85 150.27 C 12.84 155.12 15.60 159.61 17.30 164.58 C 20.90 171.24 23.24 178.57 27.39 184.93 C 36.31 181.27 44.98 177.05 53.65 172.83 C 53.57 172.15 53.42 170.78 53.35 170.10 C 49.40 162.25 46.19 154.04 42.15 146.23 C 39.06 139.95 36.83 133.23 33.05 127.30 C 26.60 129.90 20.56 133.41 14.06 135.92 Z" />
<path fill="#ffffff" opacity="1.00" d=" M 156.39 30.60 C 160.33 29.34 164.27 28.05 167.97 26.15 C 169.94 29.14 172.78 31.44 175.81 33.29 C 179.65 35.27 184.12 34.61 188.29 34.72 C 188.36 35.56 188.44 36.40 188.53 37.25 C 180.84 38.12 173.31 39.80 165.74 41.35 C 154.60 42.62 143.77 45.60 132.67 47.11 C 123.92 48.75 115.24 51.00 106.33 51.64 C 107.19 49.82 109.27 49.37 110.89 48.51 C 126.02 42.44 141.37 36.93 156.39 30.60 Z" />
<path fill="#ffffff" opacity="1.00" d=" M 175.49 45.27 C 179.52 44.41 183.51 43.13 187.69 43.26 C 189.86 49.27 195.46 54.00 201.86 54.71 C 202.93 54.84 203.79 55.35 204.45 56.24 C 176.51 56.46 148.55 56.47 120.60 56.23 C 122.42 53.80 125.81 54.75 128.37 53.89 C 138.07 51.42 148.08 50.68 157.83 48.45 C 163.65 47.02 169.63 46.49 175.49 45.27 Z" />
<path fill="#ffffff" opacity="1.00" d=" M 74.28 80.09 C 74.05 77.68 76.66 76.53 78.55 75.88 C 79.55 83.08 81.51 90.19 81.74 97.48 C 79.48 96.65 79.40 94.01 78.57 92.12 C 77.33 88.05 74.81 84.37 74.28 80.09 Z" />
<path fill="#ffffff" opacity="1.00" d=" M 84.28 77.55 C 85.96 76.65 87.71 75.86 89.51 75.22 C 89.53 82.35 89.75 89.48 89.39 96.59 L 87.98 95.48 C 86.62 89.54 86.23 83.37 84.28 77.55 Z" />
<path fill="#ffffff" opacity="1.00" d=" M 146.29 90.03 C 145.31 83.80 151.86 81.17 156.01 78.26 C 156.46 78.33 157.38 78.48 157.84 78.55 C 161.83 81.33 166.71 84.07 167.21 89.49 C 163.72 90.45 161.36 87.76 158.78 85.97 C 158.73 88.74 158.74 91.51 158.73 94.28 C 162.58 96.60 168.12 99.53 167.41 104.83 C 166.33 110.00 161.08 112.18 157.38 115.23 C 155.55 115.90 154.33 113.89 152.96 113.08 C 150.49 111.03 146.58 109.60 146.40 105.89 C 145.52 103.34 148.17 103.12 149.91 103.71 C 151.33 105.17 152.68 106.71 154.24 108.02 C 154.43 104.81 154.45 101.59 154.24 98.38 C 150.39 97.30 145.66 94.76 146.29 90.03 M 153.08 93.24 C 154.99 90.97 154.58 88.05 153.11 85.69 C 150.75 87.71 150.68 91.22 153.08 93.24 M 159.32 100.91 C 159.30 102.89 159.31 104.87 159.34 106.85 C 160.29 106.61 161.25 106.37 162.20 106.12 C 162.31 104.90 162.41 103.68 162.53 102.46 C 161.46 101.94 160.39 101.41 159.32 100.91 Z" />
<path fill="#ffffff" opacity="1.00" d=" M 34.40 166.19 C 37.37 163.71 39.87 167.62 41.06 169.96 C 39.58 171.31 38.41 174.03 36.01 173.54 C 32.15 173.80 31.11 167.66 34.40 166.19 Z" />
</g>
<g id="#000000ff">
<path fill="#000000" opacity="1.00" d=" M 146.71 28.51 C 159.53 23.26 172.51 18.45 185.34 13.25 C 188.14 20.75 191.50 28.03 194.06 35.61 C 198.41 35.29 202.65 34.05 207.04 34.11 C 208.01 41.62 209.89 49.00 211.24 56.46 C 215.30 56.30 219.36 56.37 223.42 56.42 C 223.37 83.17 223.40 109.92 223.41 136.68 C 206.92 136.68 190.42 136.67 173.92 136.66 C 172.40 136.51 170.97 137.07 169.69 137.83 C 153.60 147.53 137.26 156.80 121.10 166.38 C 118.30 168.09 115.39 170.07 112.05 170.41 C 102.15 169.28 92.72 165.79 82.94 164.00 C 77.48 162.84 72.07 160.10 66.35 161.50 C 62.40 163.03 58.65 165.05 54.86 166.94 C 49.61 155.15 44.15 143.43 38.55 131.80 C 38.31 131.00 37.83 129.42 37.60 128.63 C 46.61 124.98 55.53 121.10 64.47 117.25 C 74.76 111.63 86.84 111.87 98.09 109.66 C 110.12 108.60 121.88 104.87 134.04 105.29 C 136.41 105.25 137.81 107.88 137.67 110.00 C 138.80 115.43 134.71 120.50 129.82 122.32 C 119.05 126.05 108.17 129.45 97.28 132.86 C 98.13 139.06 105.08 140.12 109.97 141.68 C 116.65 142.01 123.04 139.32 129.46 137.80 C 120.67 135.42 111.42 137.39 102.44 136.55 C 101.78 136.16 100.44 135.38 99.78 134.99 C 103.32 133.37 106.94 131.35 110.95 131.35 C 141.42 131.38 171.89 131.36 202.37 131.37 C 203.56 128.09 204.96 124.82 207.08 122.03 C 209.74 118.73 213.87 117.37 217.66 115.86 C 217.63 102.84 217.82 89.81 217.56 76.80 C 209.72 76.50 204.62 69.30 202.57 62.41 C 171.67 62.53 140.77 62.20 109.88 62.57 C 109.22 69.77 102.81 76.30 95.56 76.83 C 95.29 86.91 95.56 97.01 95.42 107.10 C 94.35 108.99 91.83 108.27 90.07 108.79 C 86.60 109.56 83.04 109.66 79.50 109.87 C 74.87 99.37 70.96 88.58 66.88 77.86 C 65.04 72.48 62.19 67.44 61.15 61.80 C 76.90 55.26 92.95 49.52 108.72 43.03 C 121.58 38.71 133.85 32.83 146.71 28.51 M 156.39 30.60 C 141.37 36.93 126.02 42.44 110.89 48.51 C 109.27 49.37 107.19 49.82 106.33 51.64 C 115.24 51.00 123.92 48.75 132.67 47.11 C 143.77 45.60 154.60 42.62 165.74 41.35 C 173.31 39.80 180.84 38.12 188.53 37.25 C 188.44 36.40 188.36 35.56 188.29 34.72 C 184.12 34.61 179.65 35.27 175.81 33.29 C 172.78 31.44 169.94 29.14 167.97 26.15 C 164.27 28.05 160.33 29.34 156.39 30.60 M 175.49 45.27 C 169.63 46.49 163.65 47.02 157.83 48.45 C 148.08 50.68 138.07 51.42 128.37 53.89 C 125.81 54.75 122.42 53.80 120.60 56.23 C 148.55 56.47 176.51 56.46 204.45 56.24 C 203.79 55.35 202.93 54.84 201.86 54.71 C 195.46 54.00 189.86 49.27 187.69 43.26 C 183.51 43.13 179.52 44.41 175.49 45.27 M 74.28 80.09 C 74.81 84.37 77.33 88.05 78.57 92.12 C 79.40 94.01 79.48 96.65 81.74 97.48 C 81.51 90.19 79.55 83.08 78.55 75.88 C 76.66 76.53 74.05 77.68 74.28 80.09 M 84.28 77.55 C 86.23 83.37 86.62 89.54 87.98 95.48 L 89.39 96.59 C 89.75 89.48 89.53 82.35 89.51 75.22 C 87.71 75.86 85.96 76.65 84.28 77.55 Z" />
<path fill="#000000" opacity="1.00" d=" M 135.66 85.37 C 138.91 77.17 146.66 69.82 155.96 70.22 C 163.92 69.41 171.21 74.46 175.19 81.04 C 179.19 88.30 181.30 97.21 178.21 105.20 C 176.66 111.64 172.39 117.16 166.90 120.76 C 158.36 125.92 145.65 123.73 140.31 115.05 C 140.17 112.67 140.34 110.23 139.52 107.94 C 138.88 105.22 136.39 103.67 134.32 102.10 C 132.67 96.59 133.89 90.69 135.66 85.37 M 146.29 90.03 C 145.66 94.76 150.39 97.30 154.24 98.38 C 154.45 101.59 154.43 104.81 154.24 108.02 C 152.68 106.71 151.33 105.17 149.91 103.71 C 148.17 103.12 145.52 103.34 146.40 105.89 C 146.58 109.60 150.49 111.03 152.96 113.08 C 154.33 113.89 155.55 115.90 157.38 115.23 C 161.08 112.18 166.33 110.00 167.41 104.83 C 168.12 99.53 162.58 96.60 158.73 94.28 C 158.74 91.51 158.73 88.74 158.78 85.97 C 161.36 87.76 163.72 90.45 167.21 89.49 C 166.71 84.07 161.83 81.33 157.84 78.55 C 157.38 78.48 156.46 78.33 156.01 78.26 C 151.86 81.17 145.31 83.80 146.29 90.03 Z" />
<path fill="#000000" opacity="1.00" d=" M 153.08 93.24 C 150.68 91.22 150.75 87.71 153.11 85.69 C 154.58 88.05 154.99 90.97 153.08 93.24 Z" />
<path fill="#000000" opacity="1.00" d=" M 159.32 100.91 C 160.39 101.41 161.46 101.94 162.53 102.46 C 162.41 103.68 162.31 104.90 162.20 106.12 C 161.25 106.37 160.29 106.61 159.34 106.85 C 159.31 104.87 159.30 102.89 159.32 100.91 Z" />
<path fill="#000000" opacity="1.00" d=" M 14.06 135.92 C 20.56 133.41 26.60 129.90 33.05 127.30 C 36.83 133.23 39.06 139.95 42.15 146.23 C 46.19 154.04 49.40 162.25 53.35 170.10 C 53.42 170.78 53.57 172.15 53.65 172.83 C 44.98 177.05 36.31 181.27 27.39 184.93 C 23.24 178.57 20.90 171.24 17.30 164.58 C 15.60 159.61 12.84 155.12 10.85 150.27 C 9.33 147.02 7.00 143.79 6.82 140.15 C 8.71 138.05 11.60 137.20 14.06 135.92 M 34.40 166.19 C 31.11 167.66 32.15 173.80 36.01 173.54 C 38.41 174.03 39.58 171.31 41.06 169.96 C 39.87 167.62 37.37 163.71 34.40 166.19 Z" />
</g>
</svg>
